<svg xmlns="http://www.w3.org/2000/svg" viewBox="0 0 1600 1000">
<rect width="1600" height="1000" fill="#ffffff"/>

<defs>
  <!-- Small sharp arrows (5x5 pixels) -->
  <marker id="arrowRed" markerWidth="5" markerHeight="5" refX="5" refY="2.5" orient="auto">
    <path d="M 0 0 L 5 2.5 L 0 5 z" fill="#e74c3c"/>
  </marker>
  <marker id="arrowPurple" markerWidth="5" markerHeight="5" refX="5" refY="2.5" orient="auto">
    <path d="M 0 0 L 5 2.5 L 0 5 z" fill="#9b59b6"/>
  </marker>
  <marker id="arrowGreen" markerWidth="5" markerHeight="5" refX="5" refY="2.5" orient="auto">
    <path d="M 0 0 L 5 2.5 L 0 5 z" fill="#27ae60"/>
  </marker>

  <!-- Charge pattern -->
  <pattern id="chargePattern" x="0" y="0" width="40" height="40" patternUnits="userSpaceOnUse">
    <circle cx="12" cy="12" r="2.5" fill="#3498db" opacity="0.2"/>
    <circle cx="28" cy="12" r="2.5" fill="#3498db" opacity="0.2"/>
    <circle cx="20" cy="28" r="2.5" fill="#3498db" opacity="0.2"/>
    <text x="20" y="22" font-size="13" fill="#2980b9" text-anchor="middle" opacity="0.3">+</text>
  </pattern>
</defs>

<text x="800.0" y="65" text-anchor="middle" font-size="36" font-weight="600" fill="#2c3e50">
  Uniformly Charged Sphere with Spherical Cavity
</text>

<!-- ============ DIAGRAM ============ -->

<circle cx="400" cy="500" r="180" fill="url(#chargePattern)" stroke="#2980b9" stroke-width="4"/>

<circle cx="481.1894424359025" cy="529.5505403833378" r="70" fill="white" stroke="#e67e22" stroke-width="4" stroke-dasharray="18,9"/>

<circle cx="400" cy="500" r="6" fill="#2c3e50"/>
<circle cx="481.1894424359025" cy="529.5505403833378" r="6" fill="#e74c3c"/>
<circle cx="498.51355857497293" cy="512.2264242442674" r="6" fill="#9b59b6"/>

<!-- Vector a (O to C) -->
<line x1="409.3969262078591" y1="503.4202014332567" x2="437.5877048314364" y2="513.6808057330268" stroke="#e74c3c" stroke-width="4" marker-end="url(#arrowRed)"/>

<!-- Vector r (O to P) -->
<line x1="409.92386315231516" y1="501.2316412359616" x2="493.66038794104213" y2="511.62410184358885" stroke="#9b59b6" stroke-width="4" stroke-dasharray="18,9" marker-end="url(#arrowPurple)"/>

<!-- Electric field lines (uniform) -->
<line x1="441.1894424359025" y1="489.55054038333776" x2="521.1894424359025" y2="489.55054038333776" stroke="#27ae60" stroke-width="3" marker-end="url(#arrowGreen)"/>
<line x1="441.1894424359025" y1="529.5505403833378" x2="521.1894424359025" y2="529.5505403833378" stroke="#27ae60" stroke-width="3" marker-end="url(#arrowGreen)"/>
<line x1="441.1894424359025" y1="569.5505403833378" x2="521.1894424359025" y2="569.5505403833378" stroke="#27ae60" stroke-width="3" marker-end="url(#arrowGreen)"/>

<!-- ============ LABELS WITH OVERHEAD ARROWS ============ -->

<text x="355.0" y="500.0" font-size="32" font-weight="bold" fill="#2c3e50">O</text>
<text x="325.0" y="528.0" font-size="15" fill="#7f8c8d">(sphere center)</text>
<text x="506.1894424359025" y="434.55054038333776" font-size="32" font-weight="bold" fill="#e74c3c">C</text>
<text x="481.1894424359025" y="462.55054038333776" font-size="15" fill="#7f8c8d">(cavity center)</text>
<text x="523.5135585749729" y="517.2264242442674" font-size="32" font-weight="bold" fill="#9b59b6">P</text>
<text x="513.5135585749729" y="545.2264242442674" font-size="15" fill="#7f8c8d">(test point)</text>

<!-- Vector a with OVERHEAD arrow -->
<g>
  <text x="473.59472121795125" y="564.7752701916688" font-size="36" font-weight="bold" fill="#e74c3c" font-style="italic">a</text>
  <path d="M 471.59472121795125 536.7752701916688 L 495.59472121795125 536.7752701916688 L 493.59472121795125 534.7752701916688 M 495.59472121795125 536.7752701916688 L 493.59472121795125 538.7752701916688" stroke="#e74c3c" stroke-width="2" fill="none" stroke-linecap="round"/>
</g>

<!-- Vector r with OVERHEAD arrow -->
<g>
  <text x="502.25677928748644" y="559.1132121221337" font-size="36" font-weight="bold" fill="#9b59b6" font-style="italic">r</text>
  <path d="M 500.25677928748644 531.1132121221337 L 522.2567792874864 531.1132121221337 L 520.2567792874864 529.1132121221337 M 522.2567792874864 531.1132121221337 L 520.2567792874864 533.1132121221337" stroke="#9b59b6" stroke-width="2" fill="none" stroke-linecap="round"/>
</g>

<!-- Vector E with OVERHEAD arrow -->
<g>
  <text x="481.1894424359025" y="404.55054038333776" font-size="34" font-weight="bold" fill="#27ae60" font-style="italic">E</text>
  <path d="M 479.1894424359025 376.55054038333776 L 504.1894424359025 376.55054038333776 L 502.1894424359025 374.55054038333776 M 504.1894424359025 376.55054038333776 L 502.1894424359025 378.55054038333776" stroke="#27ae60" stroke-width="2" fill="none" stroke-linecap="round"/>
  <text x="529.1894424359025" y="404.55054038333776" font-size="19" fill="#27ae60">(uniform)</text>
</g>

<!-- Diagram labels -->
<text x="250" y="280" font-size="23" font-weight="bold" fill="#2980b9">Uniformly Charged</text>
<text x="290" y="305" font-size="23" font-weight="bold" fill="#2980b9">Sphere (ρ)</text>

<text x="571.1894424359025" y="604.5505403833378" font-size="22" font-weight="bold" fill="#e67e22">Spherical Cavity</text>
<text x="593.1894424359025" y="629.5505403833378" font-size="17" fill="#7f8c8d">(hollow region)</text>

<!-- ============ FORMULAS WITH OVERHEAD ARROWS ============ -->

<text x="1000" y="210" font-size="27" font-weight="bold" fill="#16a085">Part (a): Field at P in sphere</text>

<!-- Formula: E⃗ = ρr⃗/(3ε₀) -->
<g>
  <text x="1150" y="295" text-anchor="middle" font-size="50" font-weight="bold" fill="#16a085" font-style="italic">E</text>
  <path d="M 1141 262 L 1167 262 L 1165 260 M 1167 262 L 1165 264" stroke="#16a085" stroke-width="2.5" fill="none" stroke-linecap="round"/>
  <text x="1175" y="295" font-size="50" font-weight="bold" fill="#16a085"> = ρ</text>
  <text x="1246" y="295" font-size="50" font-weight="bold" fill="#16a085" font-style="italic">r</text>
  <path d="M 1239 262 L 1260 262 L 1258 260 M 1260 262 L 1258 264" stroke="#16a085" stroke-width="2.5" fill="none" stroke-linecap="round"/>
  <text x="1268" y="295" font-size="50" font-weight="bold" fill="#16a085">/(3ε₀)</text>
</g>

<text x="1000" y="370" font-size="20" fill="#34495e">• Independent of R</text>
<text x="1000" y="400" font-size="20" fill="#34495e">• Proportional to r</text>
<text x="1000" y="430" font-size="20" fill="#34495e">• Radial direction</text>

<line x1="1000" y1="480" x2="1550" y2="480" stroke="#95a5a6" stroke-width="2" stroke-dasharray="14,7"/>

<text x="1000" y="555" font-size="27" font-weight="bold" fill="#c0392b">Part (b): Field in cavity (UNIFORM)</text>

<!-- Formula: E⃗ = ρa⃗/(3ε₀) -->
<g>
  <text x="1150" y="640" text-anchor="middle" font-size="50" font-weight="bold" fill="#c0392b" font-style="italic">E</text>
  <path d="M 1141 607 L 1167 607 L 1165 605 M 1167 607 L 1165 609" stroke="#c0392b" stroke-width="2.5" fill="none" stroke-linecap="round"/>
  <text x="1175" y="640" font-size="50" font-weight="bold" fill="#c0392b"> = ρ</text>
  <text x="1246" y="640" font-size="50" font-weight="bold" fill="#c0392b" font-style="italic">a</text>
  <path d="M 1238 607 L 1260 607 L 1258 605 M 1260 607 L 1258 609" stroke="#c0392b" stroke-width="2.5" fill="none" stroke-linecap="round"/>
  <text x="1268" y="640" font-size="50" font-weight="bold" fill="#c0392b">/(3ε₀)</text>
</g>

<text x="1000" y="715" font-size="21" font-weight="bold" fill="#8e44ad">★ Key Result:</text>
<text x="1000" y="750" font-size="20" fill="#34495e">• UNIFORM field everywhere</text>
<text x="1000" y="780" font-size="20" fill="#34495e">• Independent of cavity size</text>
<text x="1000" y="810" font-size="20" fill="#34495e">• Parallel to </text>
<text x="1168" y="810" font-size="20" fill="#34495e" font-style="italic">a</text>
<path d="M 1164 795 L 1178 795 L 1176 793 M 1178 795 L 1176 797" stroke="#34495e" stroke-width="1.8" fill="none" stroke-linecap="round"/>

<text x="1000" y="865" font-size="20" fill="#7f8c8d" font-style="italic">Superposition principle</text>

<!-- ============ LEGEND WITH OVERHEAD ARROWS ============ -->

<text x="120" y="875" font-size="24" font-weight="bold" fill="#34495e">Legend:</text>

<line x1="120" y1="920" x2="210" y2="920" stroke="#e74c3c" stroke-width="4" marker-end="url(#arrowRed)"/>
<g>
  <text x="225" y="928" font-size="20" fill="#2c3e50" font-style="italic">a</text>
  <path d="M 221 911 L 235 911 L 233 909 M 235 911 L 233 913" stroke="#2c3e50" stroke-width="1.5" fill="none" stroke-linecap="round"/>
  <text x="240" y="928" font-size="20" fill="#2c3e50"> = O to C</text>
</g>

<line x1="450" y1="920" x2="540" y2="920" stroke="#9b59b6" stroke-width="4" stroke-dasharray="16,8" marker-end="url(#arrowPurple)"/>
<g>
  <text x="555" y="928" font-size="20" fill="#2c3e50" font-style="italic">r</text>
  <path d="M 552 911 L 564 911 L 562 909 M 564 911 L 562 913" stroke="#2c3e50" stroke-width="1.5" fill="none" stroke-linecap="round"/>
  <text x="568" y="928" font-size="20" fill="#2c3e50"> = O to P</text>
</g>

<line x1="780" y1="920" x2="870" y2="920" stroke="#27ae60" stroke-width="4" marker-end="url(#arrowGreen)"/>
<g>
  <text x="885" y="928" font-size="20" fill="#2c3e50" font-style="italic">E</text>
  <path d="M 881 911 L 896 911 L 894 909 M 896 911 L 894 913" stroke="#2c3e50" stroke-width="1.5" fill="none" stroke-linecap="round"/>
  <text x="900" y="928" font-size="20" fill="#2c3e50"> = Electric field</text>
</g>
</svg>