<svg xmlns="http://www.w3.org/2000/svg" viewBox="0 0 2000 1400">
<rect width="2000" height="1400" fill="#ffffff"/>

<defs>
  <marker id="arrowRed" markerWidth="5" markerHeight="5" refX="5" refY="2.5" orient="auto">
    <path d="M 0 0 L 5 2.5 L 0 5 z" fill="#e74c3c"/>
  </marker>
  <marker id="arrowBlue" markerWidth="5" markerHeight="5" refX="5" refY="2.5" orient="auto">
    <path d="M 0 0 L 5 2.5 L 0 5 z" fill="#3498db"/>
  </marker>
  <marker id="arrowGreen" markerWidth="5" markerHeight="5" refX="5" refY="2.5" orient="auto">
    <path d="M 0 0 L 5 2.5 L 0 5 z" fill="#27ae60"/>
  </marker>
  <marker id="arrowOrange" markerWidth="5" markerHeight="5" refX="5" refY="2.5" orient="auto">
    <path d="M 0 0 L 5 2.5 L 0 5 z" fill="#e67e22"/>
  </marker>
  <marker id="arrowBlueReverse" markerWidth="5" markerHeight="5" refX="0" refY="2.5" orient="auto">
    <path d="M 5 0 L 0 2.5 L 5 5 z" fill="#3498db"/>
  </marker>
  <marker id="arrowOrangeReverse" markerWidth="5" markerHeight="5" refX="0" refY="2.5" orient="auto">
    <path d="M 5 0 L 0 2.5 L 5 5 z" fill="#e67e22"/>
  </marker>
</defs>

<!-- Main Diagram -->
<g id="main-diagram">

  <!-- Battery -->
  <line x1="200" y1="560" x2="200" y2="640" stroke="#2c3e50" stroke-width="4"/>
  <line x1="215" y1="580" x2="215" y2="620" stroke="#2c3e50" stroke-width="6"/>
  <text x="170" y="550" font-size="26" fill="#2c3e50">+</text>
  <text x="170" y="665" font-size="26" fill="#2c3e50">−</text>
  <text x="240" y="610" font-size="24" fill="#34495e">V</text>

  <!-- Capacitor C -->
  <line x1="370" y1="550" x2="370" y2="650" stroke="#2c3e50" stroke-width="4"/>
  <line x1="430" y1="550" x2="430" y2="650" stroke="#2c3e50" stroke-width="4"/>
  <text x="400" y="530" text-anchor="middle" font-size="28" font-weight="bold" fill="#2c3e50">C</text>
  <text x="400" y="700" text-anchor="middle" font-size="22" fill="#34495e">46.4 pF</text>

  <!-- Capacitor C -->
  <line x1="620" y1="550" x2="620" y2="650" stroke="#2c3e50" stroke-width="4"/>
  <line x1="680" y1="550" x2="680" y2="650" stroke="#2c3e50" stroke-width="4"/>
  <text x="650" y="530" text-anchor="middle" font-size="28" font-weight="bold" fill="#2c3e50">C</text>
  <text x="650" y="700" text-anchor="middle" font-size="22" fill="#34495e">38.2 pF</text>

  <!-- Capacitor C -->
  <line x1="870" y1="550" x2="870" y2="650" stroke="#2c3e50" stroke-width="4"/>
  <line x1="930" y1="550" x2="930" y2="650" stroke="#2c3e50" stroke-width="4"/>
  <text x="900" y="530" text-anchor="middle" font-size="28" font-weight="bold" fill="#2c3e50">C</text>
  <text x="900" y="700" text-anchor="middle" font-size="22" fill="#34495e">45.8 pF</text>

  <!-- Capacitor C -->
  <line x1="1120" y1="550" x2="1120" y2="650" stroke="#2c3e50" stroke-width="4"/>
  <line x1="1180" y1="550" x2="1180" y2="650" stroke="#2c3e50" stroke-width="4"/>
  <text x="1150" y="530" text-anchor="middle" font-size="28" font-weight="bold" fill="#2c3e50">C</text>
  <text x="1150" y="700" text-anchor="middle" font-size="22" fill="#34495e">35.4 pF</text>
</g>

<!-- Given Information -->
<g id="given-info">
  <text x="1000" y="250" font-size="32" font-weight="bold" fill="#16a085">Given Information:</text>
  <text x="1020" y="300" font-size="26" fill="#34495e">• C = 46.4 pF</text>
  <text x="1020" y="340" font-size="26" fill="#34495e">• C = 38.2 pF</text>
  <text x="1020" y="380" font-size="26" fill="#34495e">• C = 45.8 pF</text>
  <text x="1020" y="420" font-size="26" fill="#34495e">• C = 35.4 pF</text>
  <text x="1020" y="460" font-size="26" fill="#34495e">• κ₁ = 21.0</text>
  <text x="1020" y="500" font-size="26" fill="#34495e">• κ₂ = 42.0</text>
  <text x="1020" y="540" font-size="26" fill="#34495e">• κ₃ = 58.0</text>
  <text x="1020" y="580" font-size="26" fill="#34495e">• κ₁ = 21.0</text>
  <text x="1020" y="620" font-size="26" fill="#34495e">• κ₂ = 42.0</text>
  <text x="1020" y="660" font-size="26" fill="#34495e">• κ₃ = 58.0</text>
  <text x="1020" y="700" font-size="26" fill="#34495e">• d = 7.12 mm</text>
  <text x="1020" y="740" font-size="26" fill="#34495e">• d = 7.12 mm</text>
  <text x="1020" y="780" font-size="26" fill="#34495e">• A = 10.5 cm²</text>
</g>
</svg>