<svg xmlns="http://www.w3.org/2000/svg" viewBox="0 0 2000 1400">
<rect width="2000" height="1400" fill="#ffffff"/>

<defs>
  <marker id="arrowRed" markerWidth="5" markerHeight="5" refX="5" refY="2.5" orient="auto">
    <path d="M 0 0 L 5 2.5 L 0 5 z" fill="#e74c3c"/>
  </marker>
  <marker id="arrowBlue" markerWidth="5" markerHeight="5" refX="5" refY="2.5" orient="auto">
    <path d="M 0 0 L 5 2.5 L 0 5 z" fill="#3498db"/>
  </marker>
  <marker id="arrowGreen" markerWidth="5" markerHeight="5" refX="5" refY="2.5" orient="auto">
    <path d="M 0 0 L 5 2.5 L 0 5 z" fill="#27ae60"/>
  </marker>
  <marker id="arrowOrange" markerWidth="5" markerHeight="5" refX="5" refY="2.5" orient="auto">
    <path d="M 0 0 L 5 2.5 L 0 5 z" fill="#e67e22"/>
  </marker>
  <marker id="arrowBlueReverse" markerWidth="5" markerHeight="5" refX="0" refY="2.5" orient="auto">
    <path d="M 5 0 L 0 2.5 L 5 5 z" fill="#3498db"/>
  </marker>
  <marker id="arrowOrangeReverse" markerWidth="5" markerHeight="5" refX="0" refY="2.5" orient="auto">
    <path d="M 5 0 L 0 2.5 L 5 5 z" fill="#e67e22"/>
  </marker>
</defs>

<!-- Main Diagram -->
<g id="main-diagram">
<text x="400" y="400" font-size="32" font-weight="bold" fill="#2c3e50">Detected Elements:</text>
<text x="420" y="450" font-size="24" fill="#34495e">• distance: d = 1.40 cm</text>
<text x="420" y="500" font-size="24" fill="#34495e">• distance: d = 1.40 cm</text>
<text x="420" y="550" font-size="24" fill="#34495e">• distance: d = 2.80 cm</text>
<text x="420" y="600" font-size="24" fill="#34495e">• point: P = </text>
<text x="420" y="650" font-size="24" fill="#34495e">• point: P = </text>
<text x="420" y="700" font-size="24" fill="#34495e">• point: P = </text>
<text x="420" y="750" font-size="24" fill="#34495e">• point: P = </text>
<text x="420" y="800" font-size="24" fill="#34495e">• point: P = </text>
<text x="420" y="850" font-size="24" fill="#34495e">• angle: θ₁ = 43°</text>
<text x="420" y="900" font-size="24" fill="#34495e">• angle: θ₂ = 60°</text>
</g>

<!-- Given Information -->
<g id="given-info">
  <text x="1000" y="250" font-size="32" font-weight="bold" fill="#16a085">Given Information:</text>
  <text x="1020" y="300" font-size="26" fill="#34495e">• d = 1.40 cm</text>
  <text x="1020" y="340" font-size="26" fill="#34495e">• d = 1.40 cm</text>
  <text x="1020" y="380" font-size="26" fill="#34495e">• d = 2.80 cm</text>
  <text x="1020" y="420" font-size="26" fill="#34495e">• θ₁ = 43°</text>
  <text x="1020" y="460" font-size="26" fill="#34495e">• θ₂ = 60°</text>
  <text x="1020" y="500" font-size="26" fill="#34495e">• θ₁ = 43°</text>
  <text x="1020" y="540" font-size="26" fill="#34495e">• θ₂ = 60°</text>
</g>
</svg>