<svg xmlns="http://www.w3.org/2000/svg" viewBox="0 0 2000 1400">
<rect width="2000" height="1400" fill="#ffffff"/>

<defs>
  <marker id="arrowRed" markerWidth="5" markerHeight="5" refX="5" refY="2.5" orient="auto">
    <path d="M 0 0 L 5 2.5 L 0 5 z" fill="#e74c3c"/>
  </marker>
  <marker id="arrowBlue" markerWidth="5" markerHeight="5" refX="5" refY="2.5" orient="auto">
    <path d="M 0 0 L 5 2.5 L 0 5 z" fill="#3498db"/>
  </marker>
  <marker id="arrowGreen" markerWidth="5" markerHeight="5" refX="5" refY="2.5" orient="auto">
    <path d="M 0 0 L 5 2.5 L 0 5 z" fill="#27ae60"/>
  </marker>
  <marker id="arrowPurple" markerWidth="5" markerHeight="5" refX="5" refY="2.5" orient="auto">
    <path d="M 0 0 L 5 2.5 L 0 5 z" fill="#9b59b6"/>
  </marker>
  <marker id="arrowOrange" markerWidth="5" markerHeight="5" refX="5" refY="2.5" orient="auto">
    <path d="M 0 0 L 5 2.5 L 0 5 z" fill="#e67e22"/>
  </marker>
</defs>

<!-- Title -->
<text x="1000" y="50" text-anchor="middle" font-size="42" font-weight="bold" fill="#2c3e50">Question 16: [Figure shows: Two fixed charges q₁ = +4e and q₂ = -2e, and a third...</text>

<g id="main-diagram">

  <!-- Point charge -->
  <circle cx="400" cy="600" r="40" fill="#FFD700" fill-opacity="0.3" stroke="#FFD700" stroke-width="4"/>
  <text x="400" y="610" text-anchor="middle" font-size="32" font-weight="bold" fill="#2c3e50">+Q</text>
  <text x="340" y="610" font-size="44" font-weight="bold" fill="#2c3e50">O</text>

  <!-- Radial field lines -->
  <line x1="450.0" y1="600.0" x2="550.0" y2="600.0" stroke="#27ae60" stroke-width="2" marker-end="url(#arrowGreen)"/>
  <line x1="435.4" y1="635.4" x2="506.1" y2="706.1" stroke="#27ae60" stroke-width="2" marker-end="url(#arrowGreen)"/>
  <line x1="400.0" y1="650.0" x2="400.0" y2="750.0" stroke="#27ae60" stroke-width="2" marker-end="url(#arrowGreen)"/>
  <line x1="364.6" y1="635.4" x2="293.9" y2="706.1" stroke="#27ae60" stroke-width="2" marker-end="url(#arrowGreen)"/>
  <line x1="350.0" y1="600.0" x2="250.0" y2="600.0" stroke="#27ae60" stroke-width="2" marker-end="url(#arrowGreen)"/>
  <line x1="364.6" y1="564.6" x2="293.9" y2="493.9" stroke="#27ae60" stroke-width="2" marker-end="url(#arrowGreen)"/>
  <line x1="400.0" y1="550.0" x2="400.0" y2="450.0" stroke="#27ae60" stroke-width="2" marker-end="url(#arrowGreen)"/>
  <line x1="435.4" y1="564.6" x2="506.1" y2="493.9" stroke="#27ae60" stroke-width="2" marker-end="url(#arrowGreen)"/>

  <text x="570" y="610" font-size="36" font-weight="bold" font-style="italic" fill="#27ae60">E</text>
<path d="M 568 593 L 584 593 L 582 591 M 584 593 L 582 595" stroke="#27ae60" stroke-width="2" fill="none" stroke-linecap="round"/>
</g>

<g id="given-info">

  <text x="1000" y="250" font-size="32" font-weight="bold" fill="#16a085">Given Information:</text>
  <text x="1020" y="300" font-size="26" fill="#34495e">• d = 1.40 cm</text>
  <text x="1020" y="340" font-size="26" fill="#34495e">• Q = (charge)</text>

</g>

<g id="legend">

  <text x="1000" y="900" font-size="32" font-weight="bold" fill="#16a085">Legend:</text>

  <line x1="1020" y1="950" x2="1110" y2="950" stroke="#27ae60" stroke-width="3" marker-end="url(#arrowGreen)"/>
  <text x="1125" y="958" font-size="36" font-weight="bold" font-style="italic" fill="#27ae60">E</text>
<path d="M 1123 941 L 1139 941 L 1137 939 M 1139 941 L 1137 943" stroke="#27ae60" stroke-width="2" fill="none" stroke-linecap="round"/>
  <text x="1160" y="958" font-size="26" fill="#34495e"> = Electric field</text>

  <circle cx="1050" cy="1010" r="20" fill="#FFD700" fill-opacity="0.3" stroke="#FFD700" stroke-width="3"/>
  <text x="1080" y="1018" font-size="26" fill="#34495e">= Positive charge</text>

</g>

</svg>