<svg xmlns="http://www.w3.org/2000/svg" viewBox="0 0 2000 1400">
<rect width="2000" height="1400" fill="#ffffff"/>

<defs>
  <!-- Arrow markers (5x5 per guidelines) -->
  <marker id="arrowRed" markerWidth="5" markerHeight="5" refX="5" refY="2.5" orient="auto">
    <path d="M 0 0 L 5 2.5 L 0 5 z" fill="#e74c3c"/>
  </marker>
  <marker id="arrowBlue" markerWidth="5" markerHeight="5" refX="5" refY="2.5" orient="auto">
    <path d="M 0 0 L 5 2.5 L 0 5 z" fill="#3498db"/>
  </marker>
  <marker id="arrowGreen" markerWidth="5" markerHeight="5" refX="5" refY="2.5" orient="auto">
    <path d="M 0 0 L 5 2.5 L 0 5 z" fill="#27ae60"/>
  </marker>
  <marker id="arrowPurple" markerWidth="5" markerHeight="5" refX="5" refY="2.5" orient="auto">
    <path d="M 0 0 L 5 2.5 L 0 5 z" fill="#9b59b6"/>
  </marker>
  <marker id="arrowOrange" markerWidth="5" markerHeight="5" refX="5" refY="2.5" orient="auto">
    <path d="M 0 0 L 5 2.5 L 0 5 z" fill="#e67e22"/>
  </marker>
</defs>
<text x="1000.0" y="50" text-anchor="middle" font-size="42" font-weight="bold" fill="#2c3e50">A uniformly charged plastic disk of radius R = 64</text>
<g id="main-diagram">
<circle cx="400" cy="600" r="30" fill="#FFD700" fill-opacity="0.3" stroke="#FFD700" stroke-width="3"/>
<text x="400" y="605" text-anchor="middle" font-size="22" font-weight="bold" fill="#2c3e50">+</text>
<text x="350" y="600" font-size="44" font-weight="bold" fill="#2c3e50">Q</text>
<line x1="440.0" y1="600.0" x2="550.0" y2="600.0" stroke="#27ae60" stroke-width="2" marker-end="url(#arrowGreen)"/>
<line x1="428.2842712474619" y1="628.2842712474619" x2="506.06601717798213" y2="706.0660171779821" stroke="#27ae60" stroke-width="2" marker-end="url(#arrowGreen)"/>
<line x1="400.0" y1="640.0" x2="400.0" y2="750.0" stroke="#27ae60" stroke-width="2" marker-end="url(#arrowGreen)"/>
<line x1="371.7157287525381" y1="628.2842712474619" x2="293.93398282201787" y2="706.0660171779821" stroke="#27ae60" stroke-width="2" marker-end="url(#arrowGreen)"/>
<line x1="360.0" y1="600.0" x2="250.0" y2="600.0" stroke="#27ae60" stroke-width="2" marker-end="url(#arrowGreen)"/>
<line x1="371.7157287525381" y1="571.7157287525381" x2="293.93398282201787" y2="493.93398282201787" stroke="#27ae60" stroke-width="2" marker-end="url(#arrowGreen)"/>
<line x1="400.0" y1="560.0" x2="400.0" y2="450.0" stroke="#27ae60" stroke-width="2" marker-end="url(#arrowGreen)"/>
<line x1="428.2842712474619" y1="571.7157287525381" x2="506.0660171779821" y2="493.93398282201787" stroke="#27ae60" stroke-width="2" marker-end="url(#arrowGreen)"/>
</g>
<g id="given-info">
<text x="1000" y="250" font-size="32" font-weight="bold" fill="#16a085">Given Information:</text>
<text x="1020" y="300" font-size="26" fill="#34495e">• </text>
<text x="1035" y="300" font-size="26" font-style="italic" fill="#34495e">R</text>
<path d="M 1033 283 L 1045 283 L 1043 281 M 1045 283 L 1043 285" stroke="#34495e" stroke-width="2" fill="none" stroke-linecap="round"/>
<text x="1048" y="300" font-size="26" fill="#34495e">A uniformly charged plastic disk of radius R = 64</text>
</g>
<g id="legend">
<text x="1000" y="660" font-size="32" font-weight="bold" fill="#2c3e50">Legend:</text>
</g>
</svg>