<svg xmlns="http://www.w3.org/2000/svg" viewBox="0 0 900 700">
<rect width="900" height="700" fill="#f8f9fa"/>
<defs>
  <marker id="arrowRed" markerWidth="10" markerHeight="10" refX="9" refY="3" orient="auto">
    <polygon points="0 0, 10 3, 0 6" fill="#e74c3c"/>
  </marker>
  <marker id="arrowBlue" markerWidth="10" markerHeight="10" refX="9" refY="3" orient="auto">
    <polygon points="0 0, 10 3, 0 6" fill="#3498db"/>
  </marker>
  <marker id="arrowGreen" markerWidth="10" markerHeight="10" refX="9" refY="3" orient="auto">
    <polygon points="0 0, 10 3, 0 6" fill="#27ae60"/>
  </marker>
  <marker id="arrowOrange" markerWidth="10" markerHeight="10" refX="9" refY="3" orient="auto">
    <polygon points="0 0, 10 3, 0 6" fill="#f39c12"/>
  </marker>
  <marker id="arrowBlack" markerWidth="10" markerHeight="10" refX="9" refY="3" orient="auto">
    <polygon points="0 0, 10 3, 0 6" fill="black"/>
  </marker>
</defs>

        <!-- Inclined Plane -->
        <path d="M 150 500 L 550 500 L 150 269.05989232414976 Z"
              fill="#d5d8dc" stroke="black" stroke-width="3"/>

        <!-- Ground line -->
        <pattern id="ground" x="0" y="0" width="20" height="10" patternUnits="userSpaceOnUse">
          <line x1="0" y1="10" x2="10" y2="0" stroke="black" stroke-width="1"/>
        </pattern>
        <rect x="150" y="500" width="400" height="20" fill="url(#ground)"/>
        
        <!-- Block -->
        <g transform="rotate(-30, 327.2243186433546, 370.0)">
          <rect x="297.2243186433546" y="340.0" width="60" height="60"
                fill="#3498db" stroke="black" stroke-width="2.5"/>
          <text x="327.2243186433546" y="378.0"
                text-anchor="middle" font-size="24" font-weight="bold" fill="white">m</text>
        </g>
        
        <!-- Weight -->
        <line x1="327.2243186433546" y1="370.0"
              x2="327.2243186433546" y2="470.0"
              stroke="#e74c3c" stroke-width="3" marker-end="url(#arrowRed)"/>
        <text x="347.2243186433546" y="420.0"
              font-size="20" font-weight="bold" fill="#e74c3c">mg</text>
        
        <!-- Normal Force -->
        <line x1="327.2243186433546" y1="370.0"
              x2="377.2243186433546" y2="283.3974596215561"
              stroke="#27ae60" stroke-width="3" marker-end="url(#arrowGreen)"/>
        <text x="392.2243186433546" y="273.3974596215561"
              font-size="20" font-weight="bold" fill="#27ae60">N</text>
        
            <!-- Friction Force -->
            <line x1="327.2243186433546" y1="370.0"
                  x2="275.2627944162883" y2="340.0"
                  stroke="#f39c12" stroke-width="3" marker-end="url(#arrowOrange)"/>
            <text x="250.26279441628827" y="330.0"
                  font-size="20" font-weight="bold" fill="#f39c12">f</text>
            
        <!-- Angle Arc -->
        <path d="M 210 500
                 A 60 60 0 0 0
                 201.96152422706632 470.0"
              fill="none" stroke="#9b59b6" stroke-width="2"/>
        <text x="230" y="485"
              font-size="18" font-weight="bold" fill="#9b59b6">30°</text>
        </svg>