<svg xmlns="http://www.w3.org/2000/svg" viewBox="0 0 2000 1400">
<rect width="2000" height="1400" fill="#ffffff"/>

<defs>
  <!-- Arrow markers (small) -->
  <marker id="arrowRed" markerWidth="5" markerHeight="5" refX="5" refY="2.5" orient="auto">
    <path d="M 0 0 L 5 2.5 L 0 5 z" fill="#e74c3c"/>
  </marker>
  <marker id="arrowBlue" markerWidth="5" markerHeight="5" refX="5" refY="2.5" orient="auto">
    <path d="M 0 0 L 5 2.5 L 0 5 z" fill="#3498db"/>
  </marker>
  <marker id="arrowGreen" markerWidth="5" markerHeight="5" refX="5" refY="2.5" orient="auto">
    <path d="M 0 0 L 5 2.5 L 0 5 z" fill="#27ae60"/>
  </marker>
  <marker id="arrowPurple" markerWidth="5" markerHeight="5" refX="5" refY="2.5" orient="auto">
    <path d="M 0 0 L 5 2.5 L 0 5 z" fill="#9b59b6"/>
  </marker>

  <!-- Charge pattern for sphere -->
  <pattern id="chargePattern" x="0" y="0" width="40" height="40" patternUnits="userSpaceOnUse">
    <circle cx="12" cy="12" r="2.5" fill="#3498db" opacity="0.2"/>
    <circle cx="28" cy="12" r="2.5" fill="#3498db" opacity="0.2"/>
    <circle cx="20" cy="28" r="2.5" fill="#3498db" opacity="0.2"/>
    <text x="20" y="22" font-size="13" fill="#2980b9" text-anchor="middle" opacity="0.3">+</text>
  </pattern>
</defs>

<text x="1000.0" y="50" text-anchor="middle" font-size="42" font-weight="bold" fill="#2c3e50">Uniformly Charged Sphere with Spherical Cavity</text>
<circle cx="450" cy="600" r="220" fill="url(#chargePattern)" stroke="#2980b9" stroke-width="4"/>
<circle cx="555" cy="663" r="85" fill="white" stroke="#e67e22" stroke-width="4" stroke-dasharray="18,9"/>
<circle cx="450" cy="600" r="6" fill="#2c3e50"/>
<circle cx="555" cy="663" r="6" fill="#e74c3c"/>
<circle cx="573" cy="648" r="6" fill="#9b59b6"/>
<g><line x1="450" y1="600" x2="480" y2="618" stroke="#e74c3c" stroke-width="4"  marker-end="url(#arrowRed)"/><text x="500" y="658" font-size="36" font-weight="bold" font-style="italic" fill="#e74c3c">a</text><path d="M 498 630 L 522 630 L 520 628 M 522 630 L 520 632" stroke="#e74c3c" stroke-width="2" fill="none"/></g>
<g><line x1="450" y1="600" x2="563" y2="653" stroke="#9b59b6" stroke-width="4" stroke-dasharray="18,9" marker-end="url(#arrowPurple)"/><text x="583" y="693" font-size="36" font-weight="bold" font-style="italic" fill="#9b59b6">r</text><path d="M 581 665 L 605 665 L 603 663 M 605 665 L 603 667" stroke="#9b59b6" stroke-width="2" fill="none"/></g>
<line x1="515" y1="623" x2="595" y2="623" stroke="#27ae60" stroke-width="3" marker-end="url(#arrowGreen)"/>
<line x1="515" y1="663" x2="595" y2="663" stroke="#27ae60" stroke-width="3" marker-end="url(#arrowGreen)"/>
<line x1="515" y1="703" x2="595" y2="703" stroke="#27ae60" stroke-width="3" marker-end="url(#arrowGreen)"/>
<text x="400" y="610" font-size="44" font-weight="bold" fill="#2c3e50">O</text>
<text x="580" y="568" font-size="44" font-weight="bold" fill="#e74c3c">C</text>
<text x="598" y="653" font-size="44" font-weight="bold" fill="#9b59b6">P</text>
<g id="given-info">
  <text x="1000" y="250" font-size="28" font-weight="bold" fill="#16a085">Given Information:</text>

  <text x="1020" y="300" font-size="22" fill="#34495e">• Sphere has uniform volume charge density ρ</text>
  <text x="1020" y="335" font-size="22" fill="#34495e">• Spherical cavity is located within the sphere</text>
  <text x="1020" y="370" font-size="22" fill="#34495e">• O = center of sphere</text>
  <text x="1020" y="405" font-size="22" fill="#34495e">• C = center of cavity</text>
  <text x="1020" y="440" font-size="22" fill="#34495e">• P = test point inside cavity</text>

  <!-- Vector a with overhead arrow -->
  <text x="1020" y="475" font-size="22" fill="#34495e">• </text>
  <text x="1035" y="475" font-size="22" font-style="italic" fill="#34495e">a</text>
  <path d="M 1033 462 L 1045 462 L 1043 460 M 1045 462 L 1043 464" stroke="#34495e" stroke-width="1.5" fill="none" stroke-linecap="round"/>
  <text x="1048" y="475" font-size="22" fill="#34495e"> = displacement vector from O to C</text>

  <!-- Vector r with overhead arrow -->
  <text x="1020" y="510" font-size="22" fill="#34495e">• </text>
  <text x="1035" y="510" font-size="22" font-style="italic" fill="#34495e">r</text>
  <path d="M 1033 497 L 1043 497 L 1041 495 M 1043 497 L 1041 499" stroke="#34495e" stroke-width="1.5" fill="none" stroke-linecap="round"/>
  <text x="1046" y="510" font-size="22" fill="#34495e"> = position vector from O to P</text>

  <!-- Vector E with overhead arrow -->
  <text x="1020" y="545" font-size="22" fill="#34495e">• </text>
  <text x="1035" y="545" font-size="22" font-style="italic" fill="#34495e">E</text>
  <path d="M 1033 532 L 1047 532 L 1045 530 M 1047 532 L 1045 534" stroke="#34495e" stroke-width="1.5" fill="none" stroke-linecap="round"/>
  <text x="1050" y="545" font-size="22" fill="#34495e"> = electric field (shown as green arrows)</text>
</g>
<g id="legend">
  <text x="120" y="875" font-size="32" font-weight="bold" fill="#34495e">Legend:</text>

  <line x1="120" y1="920" x2="210" y2="920" stroke="#e74c3c" stroke-width="4" marker-end="url(#arrowRed)"/>
  <g>
    <text x="225" y="928" font-size="26" fill="#2c3e50" font-style="italic">a</text>
    <path d="M 221 911 L 235 911 L 233 909 M 235 911 L 233 913" stroke="#2c3e50" stroke-width="2" fill="none" stroke-linecap="round"/>
    <text x="240" y="928" font-size="26" fill="#2c3e50"> = O to C (displacement)</text>
  </g>

  <line x1="450" y1="920" x2="540" y2="920" stroke="#9b59b6" stroke-width="4" stroke-dasharray="16,8" marker-end="url(#arrowPurple)"/>
  <g>
    <text x="555" y="928" font-size="26" fill="#2c3e50" font-style="italic">r</text>
    <path d="M 552 911 L 564 911 L 562 909 M 564 911 L 562 913" stroke="#2c3e50" stroke-width="2" fill="none" stroke-linecap="round"/>
    <text x="568" y="928" font-size="26" fill="#2c3e50"> = O to P (position)</text>
  </g>

  <line x1="780" y1="920" x2="870" y2="920" stroke="#27ae60" stroke-width="4" marker-end="url(#arrowGreen)"/>
  <g>
    <text x="885" y="928" font-size="26" fill="#2c3e50" font-style="italic">E</text>
    <path d="M 881 911 L 896 911 L 894 909 M 896 911 L 894 913" stroke="#2c3e50" stroke-width="2" fill="none" stroke-linecap="round"/>
    <text x="900" y="928" font-size="26" fill="#2c3e50"> = Electric field</text>
  </g>
</g>
</svg>